<?xml version="1.0" encoding="utf-8" ?><svg xmlns="http://www.w3.org/2000/svg" xmlns:xlink="http://www.w3.org/1999/xlink" width="1024" height="1024" viewBox="0 0 1024 1024"><path fill="#ffffff" d="M300.249 286.263C331.065 285.555 363.836 286.304 394.798 286.395C429.165 286.495 464.197 285.995 498.479 286.523C502.879 292.207 510.061 299.675 515.076 305.277L549.05 343.038L659.423 466.077C659.804 460.259 659.557 450.575 659.488 444.426C659.078 407.385 657.98 377.344 679.229 344.403C701.004 310.646 729.073 294.818 767.251 286.242C766.33 301.134 767.036 324.245 767.034 339.661L767.029 443.156L767.143 738.455C738.19 704.373 706.152 670.635 676.236 637.223L612.823 566.295C600.806 552.871 588.979 539.261 576.592 526.161C555.78 502.238 534.184 479.568 513.535 455.17L513.28 455.954C510.993 462.823 510.618 469.92 508.808 476.776C496.183 524.587 451.784 560.244 402.535 563.217C390.546 563.941 378.954 563.539 367.113 563.78C365.142 565.612 365.824 587.431 366.012 591.051C369.864 665.386 335.286 723.97 256.771 736.891C257.723 701.762 256.986 663.397 256.975 627.907L256.9 454.74C265.496 455.296 278.353 454.93 287.21 454.93L344.308 454.917L513.094 454.686L513.096 454.183C513.079 430.098 502.614 408.905 478.487 400.886C466.821 397.009 455.797 398.313 443.741 398.404L397.696 398.481C386.574 398.518 373.684 398.891 362.764 397.924C335.106 395.57 309.16 383.558 289.471 363.993C269.438 344.054 257.547 314.899 257.481 286.692C271.357 286.196 286.292 286.35 300.249 286.263Z"/></svg>